<svg x="0" y="0" width="977" height="804" viewBox="0 0 977 804" version="1.1" xmlns="http://www.w3.org/2000/svg" style="display: block;margin-left: auto;margin-right: auto;">
<defs>
<clipPath id="c_1"><path d="M0,0H977V804H0Z"/></clipPath>
<style>

.g0{fill:#231815;}
.g1{fill:#E1261B;}

</style>

</defs>
<path d="M0 0V804H977V0Z" fill="#FFFFFF" stroke="none"/>
<g clip-path="url(#c_1)">
<path d="M314.5 566.8l15.6 33.4H318l-22.5-33.4Zm-86.2-19.7H305V533.7H228.3Zm47.1 11.7v18.5c0 9.5-2.7 16.3-8.1 20.4c-4.7 3.5-11.7 5.3-21.1 5.3V591.4c4.2-.2 7.1-1.1 8.8-2.8c1.7-1.8 2.6-4.7 2.6-8.8v-21H211.1V522.1H322v36.7Zm-56.9 8h19L215 600.2H203.2Zm56.9-64.1h54.7v11.6H203.2V502.7h54.4v-7.5h17.8Z" class="g0"/>
<path d="M461.9 565.3l16.2 34.9H466l-23.2-34.9Zm-94.7 0h19l-23 34.9h-12Zm57.6-11.5v23.6c0 17-9.8 25.6-29.3 25.6V591.7c4.2-.4 7.2-1.5 8.9-3.3c1.8-1.8 2.7-4.9 2.7-9.2V553.8H356.2l15.4-39.5H351.2V502.6H376l3-7.4h17.9l-2.8 7.4h84v11.7H389.5l-10.9 28.1h28.5V525h17.7v17.4h48.3v11.4Z" class="g0"/>
<path d="M580.4 502.7l12.8 20.7H580.9l-18.8-20.7Zm-4.6 28.9l12.9 21H576.3l-18.7-21Zm40 43.6V603H599.1V575.9L556.6 578V566.9l42.5-2.2V495.2h16.7V564l10.4-.6v11.2ZM535 541.1V603H519.1V534c-2.6 17.4-6.4 34.7-11.6 51.9h-9.2c3.3-14 6.4-31.7 9.3-52.9h-8.4V522.4h19.9V509.3H502V498.6h26c9.2 0 17.1-.9 23.6-2.7V507c-5.8 1-11.3 1.7-16.6 2v13.4h18V533H535v7h12.1l5.8 38.9h-8.8Z" class="g0"/>
<path d="M742.5 578.5c8.7 5.5 19.2 10 31.7 13.4V603c-16.6-3.6-30.9-9.2-43-16.8c-11.8 7-25.1 12.6-39.9 16.8V591.9c10.9-3.5 20.9-7.9 29.7-13.1c-11.1-8.9-19.1-19.8-24.2-32.5h16.7c4.6 9.7 10.9 17.9 18.8 24.7c10.8-9 17.8-18.8 21.1-29.5H696V530.3h28.6V517.8H693.5V506.6h31.1V495.2h16.7v11.4h31.4v11.2H741.3v12.5h28.3v11.2c-4.1 14.2-13.1 26.5-27.1 37M679 553.7V576c0 9.1-2.4 15.7-7 19.8c-4 3.5-10.3 5.8-18.7 6.9V591.9c3.8-.7 6.3-2.4 7.7-5c.9-1.9 1.3-5.1 1.3-9.6V557.9l-15 3.9v-12l15-4v-24h-15v-11h15V495.2H679v15.6h10.3v11H679v19.9l11.1-3v11.9Z" class="g0"/>
<path d="M494.2 201.8h-42V251h42c40.1 0 72.8 32.6 72.8 72.8c0 40.2-32.7 72.8-72.8 72.8h-42V251H403V445.9h49.2v-.1h42c67.2 0 122-54.7 122-122c0-67.3-54.8-122-122-122Z" class="g1"/>
<path d="M276.6 201.8V251h49.1V357.4c0 21.6-17.6 39.2-39.2 39.2c-14.3 0-27.5-7.8-34.4-20.3c-1-1.9-1.9-3.8-2.6-5.8L203.2 387c1.5 4.5 3.5 8.8 5.8 13c15.6 28.3 45.3 45.8 77.5 45.8c48.7 0 88.4-39.7 88.4-88.4V201.8H325.7Z" class="g1"/>
<path d="M709 201.8H602.1V251h61.5V445.9h49.1V251h61.5V201.8Z" class="g1"/>

</g>
</svg>
