<?xml version="1.0" encoding="UTF-8"?>
<svg version="1.1" xmlns="http://www.w3.org/2000/svg" width="48" height="48">
<path d="M0 0 C0.66 0 1.32 0 2 0 C2.433125 0.763125 2.86625 1.52625 3.3125 2.3125 C5.28093201 5.44741023 6.61350368 6.53764931 10 8 C14.5188302 8.40346698 17.96418362 8.13660867 22 6 C22.33 5.34 22.66 4.68 23 4 C23.66 4 24.32 4 25 4 C24.55396127 9.05510556 22.35299176 11.40166738 19 15 C14.53028799 17.23485601 8.52753189 16.35118956 3.56176758 16.4050293 C2.07097118 16.42655062 0.58029915 16.46058488 -0.90991211 16.50756836 C-14.87400369 16.94350989 -14.87400369 16.94350989 -19.4609375 13.18359375 C-22.12240144 10.4021851 -22.90740268 7.88908735 -23 4 C-21.515 4.99 -21.515 4.99 -20 6 C-15.7113997 8.42587492 -12.89397387 8.621457 -8 8 C-4.06377171 5.95899274 -1.51790741 4.25014075 0 0 Z " fill="#68B948" transform="translate(23,23)"/>
<path d="M0 0 C0.66 0 1.32 0 2 0 C2.04125 0.61875 2.0825 1.2375 2.125 1.875 C2.84365983 4.28100689 2.84365983 4.28100689 5.625 5.3125 C9.45689872 6.09307196 12.20166064 5.87653985 16 5 C16.66 4.34 17.32 3.68 18 3 C18.99 3.33 19.98 3.66 21 4 C18.68042562 7.72788739 16.78288159 10.71162127 13 13 C9.06575416 13.64483541 5.10656495 13.50946864 1.125 13.5 C0.04863281 13.52835938 -1.02773438 13.55671875 -2.13671875 13.5859375 C-10.98349584 13.60775446 -10.98349584 13.60775446 -14.671875 10.64453125 C-16.90297995 8.11020566 -18.07805089 6.22682187 -19 3 C-16.79721596 3.47202515 -15.11434748 3.9290257 -13.1875 5.125 C-9.79618846 6.48152462 -7.47955943 5.93202485 -4 5 C-1.68392126 2.54366927 -1.68392126 2.54366927 0 0 Z " fill="#6BB949" transform="translate(23,9)"/>
<path d="M0 0 C0.66 0 1.32 0 2 0 C2.12375 0.639375 2.2475 1.27875 2.375 1.9375 C2.684375 2.9584375 2.684375 2.9584375 3 4 C3.66 4.33 4.32 4.66 5 5 C4 6 4 6 0.9375 6.0625 C-0.5165625 6.0315625 -0.5165625 6.0315625 -2 6 C-1.49396008 3.83125748 -1.00016187 2.00032373 0 0 Z " fill="#52B346" transform="translate(23,9)"/>
</svg>
